<?xml version="1.0" encoding="UTF-8"?>
<svg id="Layer_1" data-name="Layer 1" xmlns="http://www.w3.org/2000/svg" viewBox="0 0 1060.2 169">
  <defs>
    <style>
      .cls-1 {
        fill: #d85656;
      }

      .cls-2 {
        fill: #5677d6;
      }

      .cls-3 {
        fill: #6f7072;
      }
    </style>
  </defs>
  <g id="vyjQN6.tif">
    <path class="cls-1" d="M18.8,114C-18.4,82.9,3.4,24.1,51.3,23.5c51.5,2,105-2.6,156.3,0,62.8,3.2,69.8,86.5,10.2,101-55.8,2.4-111.8.4-167.6,1-11.3-.6-22.6-4.2-31.4-11.5ZM29.4,99.9c5.6,4.7,12.6,7.4,19.8,8h71c0,0,.6-66,.6-66l-1.3-.7H49.5c-29.9,1.5-43.1,39.3-20.1,58.8ZM138.3,89l-.2,18.9,18.9-.2-18.7-18.7ZM138.3,43.1l.3,21.4,42.2,42.4,1.8,1.1,20.3-.2-64.6-64.6ZM161.2,41.3l62.3,62.3c3.5-1.3,8.3-4.6,9.5-8.1l-54.3-54.3-17.5.2ZM203.5,41.3l37.4,37.4c3-21.7-15.9-40-37.4-37.4Z"/>
  </g>
  <g>
    <path class="cls-3" d="M316.8,49.3h0c0-4.7-2.3-7-7-7s-7,2.3-7,7h0v77.4h-14.1V28.2h17.6c2.1,0,4.2.4,6.1,1.1,1.9.7,3.6,1.7,5.1,2.9,1.5,1.2,2.8,2.7,3.9,4.5,1.1,1.7,1.8,3.6,2.2,5.6h.6c.4-2,1.1-3.9,2.2-5.6,1-1.7,2.3-3.2,3.8-4.5,1.5-1.2,3.2-2.2,5.2-2.9,1.9-.7,4-1.1,6.1-1.1s4.7.5,6.9,1.4c2.1.9,4,2.2,5.6,3.7,1.6,1.6,2.9,3.4,3.8,5.6.9,2.1,1.4,4.4,1.4,6.9v81h-14.1V49.3c0-4.7-2.3-7-7-7s-7,2.3-7,7v77.4h-14.1V49.3Z"/>
    <path class="cls-3" d="M386.6,63.4c0-4.9.9-9.4,2.8-13.7,1.8-4.3,4.4-8,7.5-11.2s6.9-5.7,11.2-7.5c4.3-1.8,8.9-2.8,13.7-2.8s9.4.9,13.7,2.8c4.3,1.8,8,4.4,11.2,7.5,3.2,3.2,5.7,6.9,7.5,11.2,1.8,4.3,2.8,8.9,2.8,13.7v28.2c0,4.9-.9,9.4-2.8,13.7-1.8,4.3-4.4,8-7.5,11.2-3.2,3.2-6.9,5.7-11.2,7.5-4.3,1.8-8.9,2.8-13.7,2.8s-9.4-.9-13.7-2.8c-4.3-1.8-8-4.4-11.2-7.5-3.2-3.2-5.7-6.9-7.5-11.2-1.8-4.3-2.8-8.9-2.8-13.7v-28.2ZM400.7,91.5c0,2.9.5,5.6,1.6,8.2,1.1,2.6,2.6,4.8,4.5,6.7,1.9,1.9,4.2,3.4,6.7,4.5,2.6,1.1,5.3,1.6,8.2,1.6s5.6-.5,8.2-1.6c2.6-1.1,4.8-2.6,6.7-4.5,1.9-1.9,3.4-4.2,4.5-6.7,1.1-2.6,1.6-5.3,1.6-8.2v-28.2c0-2.9-.6-5.6-1.6-8.2-1.1-2.6-2.6-4.8-4.5-6.7-1.9-1.9-4.2-3.4-6.7-4.5-2.6-1.1-5.3-1.6-8.2-1.6s-5.6.5-8.2,1.6c-2.6,1.1-4.8,2.6-6.7,4.5-1.9,1.9-3.4,4.2-4.5,6.7-1.1,2.6-1.6,5.3-1.6,8.2v28.2Z"/>
    <path class="cls-3" d="M484.6,126.7V28.2h14.1v14.3c1-1.8,2.7-3.6,5-5.3,2.3-1.7,4.9-3.2,7.6-4.5,2.8-1.3,5.6-2.4,8.4-3.2,2.8-.8,5.2-1.2,7.2-1.2,4.3,0,7.9.7,11,2.1s5.7,3.4,7.8,5.9c2.2,2.5,3.9,5.5,5.3,9,1.4,3.4,2.5,7.2,3.3,11.1h-14.6c-.7-2-1.4-3.9-1.9-5.6-.6-1.7-1.3-3.2-2.1-4.5-.9-1.2-2-2.2-3.3-2.9s-3.2-1.1-5.5-1.1-3.9.4-6.1,1.1c-2.1.7-4.2,1.8-6.3,3.1-2.1,1.3-4.1,2.9-6,4.7-1.9,1.8-3.6,3.8-5,5.8-1.5,2.1-2.6,4.3-3.5,6.5-.9,2.3-1.3,4.6-1.3,6.9v56.2h-14.1Z"/>
    <path class="cls-3" d="M582.7,28.2h14.1v7.1c3-2.3,6.2-4,9.8-5.3s7.3-1.9,11.3-1.9,9.4.9,13.7,2.8c4.3,1.8,8,4.4,11.2,7.5,3.2,3.2,5.7,6.9,7.5,11.2,1.8,4.3,2.8,8.9,2.8,13.7v28.2c0,4.9-.9,9.4-2.8,13.7-1.8,4.3-4.4,8-7.5,11.2-3.2,3.2-6.9,5.7-11.2,7.5-4.3,1.8-8.9,2.8-13.7,2.8s-7.8-.6-11.3-1.9c-3.6-1.2-6.8-3-9.8-5.2v49.3h-14.1V28.2ZM617.9,42.2c-2.9,0-5.6.4-8.1,1.3-2.6.9-4.8,2.2-6.7,4-1.9,1.8-3.5,4-4.6,6.6-1.1,2.6-1.7,5.7-1.7,9.2v28.2c0,3.5.6,6.6,1.7,9.2,1.1,2.6,2.7,4.8,4.6,6.6,1.9,1.8,4.2,3.1,6.7,4,2.6.9,5.3,1.3,8.1,1.3s5.6-.5,8.2-1.6c2.6-1.1,4.8-2.6,6.7-4.5,1.9-1.9,3.4-4.2,4.5-6.7,1.1-2.6,1.6-5.3,1.6-8.2v-28.2c0-2.9-.6-5.6-1.6-8.2-1.1-2.6-2.6-4.8-4.5-6.7-1.9-1.9-4.2-3.4-6.7-4.5-2.6-1.1-5.3-1.6-8.2-1.6Z"/>
    <path class="cls-3" d="M737,63.4c0-2.9-.6-5.6-1.6-8.2-1.1-2.6-2.6-4.8-4.5-6.7-1.9-1.9-4.2-3.4-6.7-4.5-2.6-1.1-5.3-1.6-8.2-1.6s-5.5.5-8.1,1.6c-2.5,1.1-4.7,2.5-6.6,4.3-1.9,1.8-3.4,4-4.5,6.4-1.1,2.5-1.8,5.1-1.9,7.9v64.2h-14.1V0h14.1v35.3c3-2.3,6.2-4,9.8-5.3s7.3-1.9,11.3-1.9,9.4.9,13.7,2.8c4.3,1.8,8,4.4,11.2,7.5,3.2,3.2,5.7,6.9,7.5,11.2,1.8,4.3,2.8,8.9,2.8,13.7v63.4h-14.1v-63.4Z"/>
    <path class="cls-3" d="M792.8,91.5c0,2.9.5,5.6,1.6,8.2,1.1,2.6,2.6,4.8,4.5,6.7,1.9,1.9,4.2,3.4,6.7,4.5,2.6,1.1,5.3,1.6,8.2,1.6h35.2v14.1h-35.2c-4.9,0-9.4-.9-13.7-2.8-4.3-1.8-8-4.4-11.2-7.5-3.2-3.2-5.7-6.9-7.5-11.2-1.8-4.3-2.8-8.9-2.8-13.7v-28.2c0-4.9.9-9.4,2.8-13.7,1.8-4.3,4.4-8,7.5-11.2s6.9-5.7,11.2-7.5c4.3-1.8,8.9-2.8,13.7-2.8s9.4.9,13.7,2.8c4.3,1.8,8,4.4,11.2,7.5,3.2,3.2,5.7,6.9,7.5,11.2,1.8,4.3,2.8,8.9,2.8,13.7v21.1h-56.3v7ZM792.8,70.4h42.2v-7c0-2.9-.6-5.6-1.6-8.2-1.1-2.6-2.6-4.8-4.5-6.7-1.9-1.9-4.2-3.4-6.7-4.5-2.6-1.1-5.3-1.6-8.2-1.6s-5.6.5-8.2,1.6c-2.6,1.1-4.8,2.6-6.7,4.5-1.9,1.9-3.4,4.2-4.5,6.7-1.1,2.6-1.6,5.3-1.6,8.2v7Z"/>
    <path class="cls-3" d="M892.5,99.7c1.1,2.6,2.6,4.8,4.5,6.7,1.9,1.9,4.2,3.4,6.7,4.5,2.6,1.1,5.3,1.6,8.2,1.6s5.6-.6,8.1-1.7c2.6-1.1,4.8-2.7,6.7-4.6,1.9-1.9,3.5-4.2,4.6-6.7,1.1-2.6,1.7-5.3,1.7-8.1V28.2h14.1v98.6h-14.1v-7c-3,2.2-6.2,3.9-9.8,5.2-3.6,1.2-7.3,1.9-11.3,1.9s-9.4-.9-13.7-2.8c-4.3-1.8-8-4.4-11.2-7.5-3.2-3.2-5.7-6.9-7.5-11.2-1.8-4.3-2.8-8.9-2.8-13.7V28.2h14.1v63.4c0,2.9.5,5.6,1.6,8.2Z"/>
    <path class="cls-3" d="M1045.2,28.2v14.1h-35.2c-3.5,0-6.6.4-9.2,1.2-2.6.8-4.8,1.9-6.6,3.2-1.8,1.3-3.1,2.8-4,4.5-.9,1.7-1.3,3.4-1.3,5.2s.4,3.5,1.3,5.2c.9,1.7,2.2,3.2,4,4.5,1.8,1.3,4,2.4,6.6,3.2,2.6.8,5.7,1.2,9.2,1.2s4.8.2,7.5.6c2.7.4,5.3,1.1,7.9,2,2.6.9,5.1,2.1,7.5,3.5,2.4,1.5,4.5,3.2,6.3,5.3,1.8,2.1,3.3,4.5,4.4,7.2,1.1,2.7,1.6,5.9,1.6,9.4s-.8,7-2.5,10.4c-1.7,3.4-4.1,6.4-7.1,9.1-3.1,2.7-6.8,4.8-11.1,6.4-4.3,1.6-9.1,2.4-14.4,2.4h-35.2v-14.1h35.2c3.5,0,6.6-.4,9.2-1.2,2.6-.8,4.8-1.9,6.6-3.2,1.8-1.3,3.1-2.9,4-4.6.9-1.7,1.3-3.5,1.3-5.3s-.4-3.4-1.3-5.1c-.9-1.7-2.2-3.1-4-4.5-1.8-1.3-4-2.4-6.6-3.2-2.6-.8-5.7-1.2-9.2-1.2s-4.8-.2-7.5-.6c-2.7-.4-5.3-1.1-7.9-2-2.6-.9-5.1-2.1-7.5-3.6-2.4-1.5-4.5-3.2-6.3-5.3-1.8-2.1-3.3-4.5-4.4-7.3-1.1-2.8-1.6-5.9-1.6-9.4s.8-7,2.5-10.3,4.1-6.4,7.1-9c3.1-2.6,6.8-4.8,11.1-6.4,4.3-1.6,9.1-2.4,14.4-2.4h35.2Z"/>
  </g>
</svg>